HIERARCHY
ROOT Hips
{
	OFFSET 0.000000 0.000000 0.000000 
	CHANNELS 6 Xposition Yposition Zposition Zrotation Yrotation Xrotation
	JOINT LeftUpLeg
	{
		OFFSET 1.363060 -1.794630 0.839290 
		CHANNELS 3 Zrotation Yrotation Xrotation
		JOINT LeftLeg
		{
			OFFSET 2.448110 -6.726130 0.000000 
			CHANNELS 3 Zrotation Yrotation Xrotation
			JOINT LeftFoot
			{
				OFFSET 2.562200 -7.039590 0.000000 
				CHANNELS 3 Zrotation Yrotation Xrotation
				JOINT LeftToeBase
				{
					OFFSET 0.157640 -0.433110 2.322550 
					CHANNELS 3 Zrotation Yrotation Xrotation
					End Site
					{
						OFFSET 0.000000 0.000000 0.000000 
					}
				}
			}
		}
	}
	JOINT RightUpLeg
	{
		OFFSET -1.305520 -1.794630 0.839290 
		CHANNELS 3 Zrotation Yrotation Xrotation
		JOINT RightLeg
		{
			OFFSET -2.542530 -6.985550 0.000000 
			CHANNELS 3 Zrotation Yrotation Xrotation
			JOINT RightFoot
			{
				OFFSET -2.568260 -7.056230 0.000000 
				CHANNELS 3 Zrotation Yrotation Xrotation
				JOINT RightToeBase
				{
					OFFSET -0.164730 -0.452590 2.363150 
					CHANNELS 3 Zrotation Yrotation Xrotation
					End Site
					{
						OFFSET 0.000000 0.000000 0.000000 
					}
				}
			}
		}
	}
	JOINT Spine
	{
		OFFSET 0.028270 2.035590 -0.193380 
		CHANNELS 3 Zrotation Yrotation Xrotation
		JOINT Spine1
		{
			OFFSET 0.056720 2.048850 -0.042750 
			CHANNELS 3 Zrotation Yrotation Xrotation
			JOINT Neck1
			{
				OFFSET -0.054170 1.746240 0.172020 
				CHANNELS 3 Zrotation Yrotation Xrotation
				JOINT Head
				{
					OFFSET 0.104070 1.761360 -0.123970 
					CHANNELS 3 Zrotation Yrotation Xrotation
					End Site
					{
						OFFSET 0.000000 0.000000 0.000000 
					}
				}
			}
			JOINT LeftArm
			{
				OFFSET 3.362410 1.200890 -0.311210 
				CHANNELS 3 Zrotation Yrotation Xrotation
				JOINT LeftForeArm
				{
					OFFSET 4.983000 -0.000000 -0.000000 
					CHANNELS 3 Zrotation Yrotation Xrotation
					JOINT LeftHand
					{
						OFFSET 3.483560 -0.000000 -0.000000 
						CHANNELS 3 Zrotation Yrotation Xrotation
						JOINT LeftHandIndex1
						{
							OFFSET 0.715260 -0.000000 -0.000000 
							CHANNELS 3 Zrotation Yrotation Xrotation
							End Site
							{
								OFFSET 0.000000 0.000000 0.000000 
							}
						}
					}
				}
			}
			JOINT RightArm
			{
				OFFSET -3.136600 1.374050 -0.404650 
				CHANNELS 3 Zrotation Yrotation Xrotation
				JOINT RightForeArm
				{
					OFFSET -5.241900 -0.000000 -0.000000 
					CHANNELS 3 Zrotation Yrotation Xrotation
					JOINT RightHand
					{
						OFFSET -3.444170 -0.000000 -0.000000 
						CHANNELS 3 Zrotation Yrotation Xrotation
						JOINT RightHandIndex1
						{
							OFFSET -0.622530 -0.000000 -0.000000 
							CHANNELS 3 Zrotation Yrotation Xrotation
							End Site
							{
								OFFSET 0.000000 0.000000 0.000000 
							}
						}
					}
				}
			}
		}
	}
}
MOTION
Frames: 13
Frame Time: 0.041667
0.072605 17.837603 -29.879889 1.030250 -9.867669 4.755583 -17.060993 7.832778 -7.609738 21.764247 17.829460 92.080592 0.028163 17.407541 31.706032 0.011400 0.690300 1.897000 16.194780 14.804907 -28.814577 -3.574509 -13.036883 40.027849 0.827479 -4.403073 3.639942 -0.067400 -1.675400 4.609500 2.745793 -2.633952 4.268371 2.815761 -0.840476 -11.031461 0.383931 4.133051 -6.283479 -0.719600 2.034600 -4.636800 -80.818188 10.266618 46.300961 111.263969 -64.954577 -83.588940 0.227021 -2.056299 -19.555110 -7.125000 0.000000 0.000000 71.895994 -10.511002 35.663827 -106.263608 64.005772 -81.560083 1.052309 1.401030 -11.012043 7.125000 0.000000 0.000000 
0.066052 17.764478 -29.393288 0.099229 -10.568147 4.687531 -15.100730 8.625711 -10.444186 22.972023 17.817999 96.798241 0.395585 14.323627 31.151749 0.005700 -0.489100 -1.343800 17.261032 15.241001 -27.121551 -3.830676 -13.140858 41.033387 0.566237 -3.476126 1.562518 -0.151500 -2.508400 6.912900 2.857239 -1.886764 4.639596 2.259755 -0.494526 -10.950722 0.042223 4.001278 -6.233854 -0.954200 1.943000 -4.437700 -80.626247 10.961213 45.855170 109.734659 -65.231899 -82.625827 0.227593 -2.121261 -19.194305 -7.125000 0.000000 0.000000 72.100574 -7.219478 36.203053 -107.105814 63.727811 -82.139682 1.021912 1.383003 -10.849518 7.125000 0.000000 0.000000 
0.053882 17.724535 -28.890460 -0.881010 -10.629458 4.958043 -12.838043 8.997363 -13.735330 24.038219 17.812952 101.005569 0.955243 10.775853 31.675902 0.010700 -0.668700 -1.837600 18.364039 14.948801 -25.737770 -3.934569 -13.128481 41.470177 0.401569 -2.985588 -0.183973 -0.137700 -2.391400 6.588700 2.836457 -1.651122 4.959588 1.515288 -0.407797 -10.426739 0.066961 4.143565 -6.112199 -1.008200 1.989700 -4.295200 -80.338158 12.021098 44.660121 108.876777 -65.375853 -82.107594 0.283795 -2.184017 -19.705754 -7.125000 0.000000 0.000000 72.452318 -3.784879 37.223427 -107.537196 63.491444 -82.447987 1.014394 1.362953 -10.626595 7.125000 0.000000 0.000000 
0.040879 17.694057 -28.383679 -1.740753 -9.984962 5.244528 -10.744405 8.646860 -16.742616 24.995333 17.787227 104.706170 1.290187 7.876110 31.805620 0.003700 0.394900 1.085000 19.400977 14.082982 -24.598862 -4.057103 -13.152144 41.957510 0.302025 -2.792031 -1.891521 -0.040800 -1.304300 3.586600 2.891906 -1.818192 5.165289 0.937544 -0.495974 -9.914722 0.083645 4.306615 -6.053438 -1.032300 2.059000 -4.244300 -80.193452 13.178241 43.555205 108.062362 -65.538756 -81.567596 0.291886 -2.224839 -20.405851 -7.125000 0.000000 0.000000 72.582501 -0.512461 38.384462 -107.944892 63.263413 -82.776440 0.997586 1.383279 -10.288982 7.125000 0.000000 0.000000 
0.026733 17.640071 -27.904255 -2.223422 -9.122049 5.342899 -9.482312 7.553915 -19.357485 25.883085 17.691775 107.984282 1.283080 6.373777 30.937067 0.095700 1.995100 5.492100 20.125611 13.143420 -23.537384 -4.163744 -13.161402 42.326887 0.497700 -3.580705 -3.391849 -0.005200 -0.466400 1.281500 3.385763 -2.081274 4.844860 1.303693 -0.557420 -10.339496 0.144599 4.382666 -5.974941 -0.926200 2.128000 -4.367700 -80.782781 15.028059 42.631030 107.100700 -65.769156 -80.943581 0.259386 -2.245303 -21.505548 -7.125000 0.000000 0.000000 71.767395 1.704365 39.781579 -109.037434 62.990159 -83.534376 0.938856 1.386896 -10.003721 7.125000 0.000000 0.000000 
0.017267 17.597319 -27.417654 -2.282645 -8.338293 5.361281 -8.947825 6.334829 -21.673209 26.580952 17.568558 110.549462 1.167071 5.601674 29.843474 0.265500 3.314500 9.155700 20.490861 11.910347 -22.623094 -4.217002 -13.135266 42.453353 1.126780 -5.677912 -4.462249 -0.148000 2.479100 -6.831700 3.932870 -2.331274 4.378543 2.062278 -0.578078 -10.922648 0.111178 4.349351 -5.871546 -0.820500 2.160400 -4.538400 -81.554146 17.110774 41.945907 108.068184 -65.755452 -81.490241 0.316703 -2.260997 -23.644968 -7.125000 0.000000 0.000000 70.701872 3.623244 41.171074 -110.055758 62.728447 -84.215130 0.889993 1.353638 -9.809943 7.125000 0.000000 0.000000 
0.009986 17.579428 -26.911913 -2.415944 -7.898263 5.521536 -8.386382 5.593529 -24.159059 27.085524 17.530510 112.403002 1.171980 4.552858 29.457262 0.416000 4.140100 11.471200 20.578222 11.405293 -20.917697 -4.206545 -13.022098 42.459783 0.711532 -4.601237 -5.892530 -0.028300 1.085600 -2.984300 4.198743 -2.186698 4.213051 2.212237 -0.457562 -10.934948 -0.068698 4.024005 -5.330047 -0.837200 2.029900 -4.307000 -81.690596 18.433182 42.028995 108.555131 -65.752548 -81.772543 0.349978 -2.264327 -25.902909 -7.125000 0.000000 0.000000 70.266343 5.907842 41.752447 -110.599618 62.516257 -84.606287 0.867541 1.334937 -9.113747 7.125000 0.000000 0.000000 
0.003433 17.592534 -26.394523 -2.675355 -7.765164 5.835791 -7.914404 5.085379 -27.033936 27.353826 17.598447 113.567870 1.104911 2.678848 28.246552 0.206200 2.923800 8.066800 20.906673 10.835490 -19.496383 -4.105230 -12.816588 42.046140 1.050743 -5.713458 -6.502055 -0.141600 2.425600 -6.683400 4.064072 -1.519572 4.255072 1.577473 -0.146537 -10.615182 -0.241618 3.321283 -4.311465 -0.959400 1.677600 -3.656800 -80.739491 18.972403 43.124945 109.129886 -65.674208 -82.106432 0.388162 -2.261698 -28.226578 -7.125000 0.000000 0.000000 70.457443 8.067855 41.175659 -111.651736 62.211818 -85.342826 0.826941 1.302057 -8.129262 7.125000 0.000000 0.000000 
-0.006137 17.612506 -25.895543 -3.057816 -7.595089 6.018579 -7.347574 4.473029 -29.737696 27.466640 17.739669 114.190629 0.952241 0.530341 26.050672 0.085100 1.881900 5.179400 21.379612 10.405260 -17.803286 -3.931544 -12.526237 41.341097 1.386336 -6.694530 -6.512876 -0.302700 3.537600 -9.779200 4.081562 -0.902773 4.170936 1.174127 0.158054 -10.640912 -0.277049 2.753428 -3.844445 -1.009900 1.394400 -3.398000 -79.988272 19.740201 44.039292 110.054328 -65.558672 -82.636878 0.401329 -2.242215 -30.022980 -7.125000 0.000000 0.000000 70.377966 9.411965 40.776384 -113.546560 61.758900 -86.590931 0.749001 1.203013 -7.044158 7.125000 0.000000 0.000000 
-0.009050 17.653698 -25.392923 -3.472663 -7.612982 6.088048 -6.809072 4.054666 -32.019583 27.414070 17.960752 114.117115 0.902110 -1.502802 24.516103 0.092600 -1.962200 -5.401300 21.776954 10.283893 -15.648910 -3.669679 -12.145464 40.322999 1.323682 -6.395997 -6.025611 -0.358600 3.847300 -10.647500 4.290198 -0.381855 3.930467 1.073716 0.434158 -10.969712 -0.306250 2.501272 -3.571906 -1.010000 1.282000 -3.353900 -79.761267 21.127532 44.553548 111.489325 -65.387963 -83.478441 0.381759 -2.188200 -31.259112 -7.125000 0.000000 0.000000 69.942353 10.131896 40.987733 -115.529178 61.261210 -87.869085 0.658162 1.081005 -6.049588 7.125000 0.000000 0.000000 
-0.007801 17.736913 -24.863570 -3.819218 -7.845100 6.047194 -6.495003 3.685533 -33.809426 27.129708 18.266431 113.205359 0.953181 -3.439524 23.965165 0.265200 -3.313100 -9.151700 22.012508 10.339103 -13.190721 -3.344123 -11.698298 39.038550 1.182062 -5.770348 -4.912340 -0.359300 3.850900 -10.657500 4.217689 0.394954 3.831029 0.542314 0.800482 -11.143987 -0.306985 2.088678 -2.894926 -1.053700 1.076100 -3.022800 -78.886680 22.017117 45.539566 112.891016 -65.151015 -84.317263 0.379037 -2.138122 -32.286823 -7.125000 0.000000 0.000000 69.827298 10.757412 40.775760 -117.554213 60.686247 -89.210627 0.561425 1.003046 -5.043836 7.125000 0.000000 0.000000 
0.003641 17.805253 -24.324856 -3.871291 -8.128909 6.160221 -6.675867 3.045411 -35.530127 26.726317 18.583238 111.865807 0.980306 -4.765169 23.546860 0.282100 -3.416300 -9.439900 21.752365 10.483898 -10.719280 -2.967906 -11.209029 37.540549 1.130411 -5.455368 -3.932970 -0.434800 4.231200 -11.728100 3.968541 1.110386 3.677876 -0.066824 1.140932 -11.196857 -0.010977 1.736433 -2.340604 -0.965900 0.897800 -2.747700 -78.003010 22.745872 46.392096 113.820562 -64.989854 -84.864730 0.364750 -2.093335 -32.757916 -7.125000 0.000000 0.000000 69.835015 11.136059 40.627918 -119.912986 59.936388 -90.836421 0.456221 1.036186 -4.689117 7.125000 0.000000 0.000000 
0.017683 17.883892 -23.795086 -3.909396 -8.069144 6.220758 -6.874465 1.977834 -37.219092 26.200345 18.926427 110.107594 1.022937 -5.910775 23.386064 0.206100 -2.922700 -8.063700 21.486482 10.410472 -8.458812 -2.573086 -10.691797 35.909315 1.258290 -5.692188 -2.845448 -0.739200 5.492400 -15.318400 3.862495 1.579920 3.530331 -0.462580 1.376439 -11.297402 0.467209 1.377763 -2.309726 -0.743900 0.722900 -2.749100 -77.596605 23.451235 46.832944 114.710756 -64.828514 -85.399869 0.357129 -2.057591 -32.842283 -7.125000 0.000000 0.000000 69.661672 11.474435 40.744629 -122.144647 59.153509 -92.354998 0.359438 1.041423 -5.119029 7.125000 0.000000 0.000000 
